<svg width="17" height="18" viewBox="0 0 17 18" fill="none" xmlns="http://www.w3.org/2000/svg">
<path d="M9.88188 13.8213H1V1.25H11.9315V4.04362M11.9315 4.04362C12.8376 4.04362 13.7065 4.41153 14.3471 5.06641C14.9877 5.72129 15.3477 6.6095 15.3477 7.53564C15.3477 8.46178 14.9877 9.34999 14.3471 10.0049C13.7065 10.6598 12.8376 11.0277 11.9315 11.0277C11.0255 11.0277 10.1566 10.6598 9.51599 10.0049C8.87535 9.34999 8.51544 8.46178 8.51544 7.53564C8.51544 6.6095 8.87535 5.72129 9.51599 5.06641C10.1566 4.41153 11.0255 4.04362 11.9315 4.04362ZM3.04967 6.13883H7.149M3.04967 8.23404H6.46577M3.04967 10.3293H4.41611M3.04967 4.04362H4.41611M9.88188 10.3293V15.9165L11.9315 14.5197L13.9812 15.9165V10.3293H11.9315H9.88188Z" stroke="#1A2134" stroke-width="1.5"/>
<ellipse cx="11.9321" cy="7.5358" rx="2.73289" ry="2.79362" fill="white"/>
</svg>
