<svg width="16" height="18" viewBox="0 0 16 18" fill="none" xmlns="http://www.w3.org/2000/svg">
<path d="M0 1.77778V12.4444C0 13.4249 0.797333 14.2222 1.77778 14.2222H4.96533L8 17.2569L11.0347 14.2222H14.2222C15.2027 14.2222 16 13.4249 16 12.4444V1.77778C16 0.797333 15.2027 0 14.2222 0H1.77778C0.797333 0 0 0.797333 0 1.77778ZM1.77778 1.77778H14.2222V12.4444H10.2987L8 14.7431L5.70133 12.4444H1.77778V1.77778Z" fill="#1A2134"/>
<path d="M12.6289 4.62798L11.372 3.37109L7.11152 7.63154L5.07329 5.59332L3.81641 6.8502L7.11152 10.1453L12.6289 4.62798Z" fill="#1A2134"/>
</svg>
