<svg width="15" height="14" viewBox="0 0 15 14" fill="none" xmlns="http://www.w3.org/2000/svg">
<path d="M7.8105 1.55556H14.25C14.4489 1.55556 14.6397 1.6375 14.7803 1.78336C14.921 1.92922 15 2.12705 15 2.33333V13.2222C15 13.4285 14.921 13.6263 14.7803 13.7722C14.6397 13.9181 14.4489 14 14.25 14H0.75C0.551088 14 0.360322 13.9181 0.21967 13.7722C0.0790176 13.6263 0 13.4285 0 13.2222V0.777778C0 0.571498 0.0790176 0.373667 0.21967 0.227806C0.360322 0.0819442 0.551088 0 0.75 0H6.3105L7.8105 1.55556ZM1.5 1.55556V12.4444H13.5V3.11111H7.1895L5.6895 1.55556H1.5ZM8.25 7.77778H10.5L7.5 10.8889L4.5 7.77778H6.75V4.66667H8.25V7.77778Z" fill="black"/>
</svg>
