<svg width="16" height="16" viewBox="0 0 16 16" fill="none" xmlns="http://www.w3.org/2000/svg">
<path fill-rule="evenodd" clip-rule="evenodd" d="M8 14.5455C8.85956 14.5455 9.71071 14.3762 10.5048 14.0472C11.299 13.7183 12.0205 13.2361 12.6283 12.6283C13.2361 12.0205 13.7183 11.299 14.0472 10.5048C14.3762 9.71071 14.5455 8.85956 14.5455 8C14.5455 7.14044 14.3762 6.28929 14.0472 5.49516C13.7183 4.70103 13.2361 3.97947 12.6283 3.37166C12.0205 2.76386 11.299 2.28173 10.5048 1.95279C9.71071 1.62385 8.85956 1.45455 8 1.45455C6.26404 1.45455 4.59918 2.14415 3.37167 3.37166C2.14415 4.59918 1.45455 6.26404 1.45455 8C1.45455 9.73596 2.14415 11.4008 3.37167 12.6283C4.59918 13.8558 6.26404 14.5455 8 14.5455ZM8 16C12.4182 16 16 12.4182 16 8C16 3.58182 12.4182 0 8 0C3.58182 0 0 3.58182 0 8C0 12.4182 3.58182 16 8 16Z" fill="#1A2134"/>
<path d="M10.9105 7.99968L6.54688 11.1488V4.85059L10.9105 7.99968Z" fill="#1A2134"/>
</svg>
