<svg width="15" height="12" viewBox="0 0 15 12" fill="none" xmlns="http://www.w3.org/2000/svg">
<path d="M12.2143 5H6C5.40857 5 5.35714 5.447 5.35714 6C5.35714 6.553 5.40857 7 6 7H12.2143C12.8057 7 12.8571 6.553 12.8571 6C12.8571 5.447 12.8057 5 12.2143 5ZM14.3571 10H6C5.40857 10 5.35714 10.447 5.35714 11C5.35714 11.553 5.40857 12 6 12H14.3571C14.9486 12 15 11.553 15 11C15 10.447 14.9486 10 14.3571 10ZM6 2H14.3571C14.9486 2 15 1.553 15 1C15 0.447 14.9486 0 14.3571 0H6C5.40857 0 5.35714 0.447 5.35714 1C5.35714 1.553 5.40857 2 6 2ZM2.57143 5H0.642857C0.0514285 5 0 5.447 0 6C0 6.553 0.0514285 7 0.642857 7H2.57143C3.16286 7 3.21429 6.553 3.21429 6C3.21429 5.447 3.16286 5 2.57143 5ZM2.57143 10H0.642857C0.0514285 10 0 10.447 0 11C0 11.553 0.0514285 12 0.642857 12H2.57143C3.16286 12 3.21429 11.553 3.21429 11C3.21429 10.447 3.16286 10 2.57143 10ZM2.57143 0H0.642857C0.0514285 0 0 0.447 0 1C0 1.553 0.0514285 2 0.642857 2H2.57143C3.16286 2 3.21429 1.553 3.21429 1C3.21429 0.447 3.16286 0 2.57143 0Z" fill="black"/>
</svg>
